<mxfile host="app.diagrams.net" agent="Mozilla/5.0 (Macintosh; Intel Mac OS X 10_15_7) AppleWebKit/537.36 (KHTML, like Gecko) Chrome/127.0.0.0 Safari/537.36" version="24.7.6">
  <diagram name="Page-1" id="t2yhjjXXR0VWOfWk3ZQQ">
    <mxGraphModel dx="1482" dy="785" grid="1" gridSize="10" guides="1" tooltips="1" connect="1" arrows="1" fold="1" page="1" pageScale="1" pageWidth="827" pageHeight="1169" math="0" shadow="0">
      <root>
        <mxCell id="0" />
        <mxCell id="1" parent="0" />
        <mxCell id="WJ1Att6ZlezzinivNfb--9" style="edgeStyle=orthogonalEdgeStyle;rounded=0;orthogonalLoop=1;jettySize=auto;html=1;entryX=0;entryY=0.5;entryDx=0;entryDy=0;" edge="1" parent="1" target="WJ1Att6ZlezzinivNfb--2">
          <mxGeometry relative="1" as="geometry">
            <mxPoint x="560" y="340" as="sourcePoint" />
            <Array as="points">
              <mxPoint x="620" y="340" />
              <mxPoint x="620" y="210" />
            </Array>
          </mxGeometry>
        </mxCell>
        <mxCell id="WJ1Att6ZlezzinivNfb--10" style="edgeStyle=orthogonalEdgeStyle;rounded=0;orthogonalLoop=1;jettySize=auto;html=1;exitX=1;exitY=0.5;exitDx=0;exitDy=0;entryX=0;entryY=0.5;entryDx=0;entryDy=0;" edge="1" parent="1" source="WJ1Att6ZlezzinivNfb--1" target="WJ1Att6ZlezzinivNfb--4">
          <mxGeometry relative="1" as="geometry">
            <Array as="points">
              <mxPoint x="620" y="340" />
              <mxPoint x="620" y="470" />
            </Array>
          </mxGeometry>
        </mxCell>
        <mxCell id="WJ1Att6ZlezzinivNfb--11" style="edgeStyle=orthogonalEdgeStyle;rounded=0;orthogonalLoop=1;jettySize=auto;html=1;" edge="1" parent="1" source="WJ1Att6ZlezzinivNfb--1" target="WJ1Att6ZlezzinivNfb--3">
          <mxGeometry relative="1" as="geometry" />
        </mxCell>
        <mxCell id="WJ1Att6ZlezzinivNfb--14" style="edgeStyle=orthogonalEdgeStyle;rounded=0;orthogonalLoop=1;jettySize=auto;html=1;exitX=0;exitY=0.75;exitDx=0;exitDy=0;entryX=1;entryY=0.75;entryDx=0;entryDy=0;" edge="1" parent="1" source="WJ1Att6ZlezzinivNfb--1" target="WJ1Att6ZlezzinivNfb--12">
          <mxGeometry relative="1" as="geometry" />
        </mxCell>
        <mxCell id="WJ1Att6ZlezzinivNfb--1" value="Backend&lt;div&gt;(Java/Spring)&lt;/div&gt;" style="whiteSpace=wrap;html=1;aspect=fixed;rounded=0;" vertex="1" parent="1">
          <mxGeometry x="480" y="300" width="80" height="80" as="geometry" />
        </mxCell>
        <mxCell id="WJ1Att6ZlezzinivNfb--2" value="API 1" style="whiteSpace=wrap;html=1;aspect=fixed;rounded=0;" vertex="1" parent="1">
          <mxGeometry x="690" y="170" width="80" height="80" as="geometry" />
        </mxCell>
        <mxCell id="WJ1Att6ZlezzinivNfb--15" style="edgeStyle=orthogonalEdgeStyle;rounded=0;orthogonalLoop=1;jettySize=auto;html=1;exitX=0;exitY=0.5;exitDx=0;exitDy=0;" edge="1" parent="1" source="WJ1Att6ZlezzinivNfb--3">
          <mxGeometry relative="1" as="geometry">
            <mxPoint x="560" y="340" as="targetPoint" />
          </mxGeometry>
        </mxCell>
        <mxCell id="WJ1Att6ZlezzinivNfb--3" value="API 2" style="whiteSpace=wrap;html=1;aspect=fixed;rounded=0;" vertex="1" parent="1">
          <mxGeometry x="690" y="300" width="80" height="80" as="geometry" />
        </mxCell>
        <mxCell id="WJ1Att6ZlezzinivNfb--4" value="API n" style="whiteSpace=wrap;html=1;aspect=fixed;rounded=0;" vertex="1" parent="1">
          <mxGeometry x="690" y="430" width="80" height="80" as="geometry" />
        </mxCell>
        <mxCell id="WJ1Att6ZlezzinivNfb--5" value="SSO" style="whiteSpace=wrap;html=1;aspect=fixed;rounded=0;" vertex="1" parent="1">
          <mxGeometry x="210" y="170" width="80" height="80" as="geometry" />
        </mxCell>
        <mxCell id="WJ1Att6ZlezzinivNfb--7" style="edgeStyle=orthogonalEdgeStyle;rounded=0;orthogonalLoop=1;jettySize=auto;html=1;entryX=0.5;entryY=1;entryDx=0;entryDy=0;" edge="1" parent="1" source="WJ1Att6ZlezzinivNfb--6" target="WJ1Att6ZlezzinivNfb--5">
          <mxGeometry relative="1" as="geometry" />
        </mxCell>
        <mxCell id="WJ1Att6ZlezzinivNfb--8" style="edgeStyle=orthogonalEdgeStyle;rounded=0;orthogonalLoop=1;jettySize=auto;html=1;entryX=0;entryY=0.5;entryDx=0;entryDy=0;" edge="1" parent="1" source="WJ1Att6ZlezzinivNfb--6" target="WJ1Att6ZlezzinivNfb--12">
          <mxGeometry relative="1" as="geometry" />
        </mxCell>
        <mxCell id="WJ1Att6ZlezzinivNfb--6" value="Actor" style="shape=umlActor;verticalLabelPosition=bottom;verticalAlign=top;html=1;outlineConnect=0;rounded=0;" vertex="1" parent="1">
          <mxGeometry x="150" y="310" width="30" height="60" as="geometry" />
        </mxCell>
        <mxCell id="WJ1Att6ZlezzinivNfb--13" style="edgeStyle=orthogonalEdgeStyle;rounded=0;orthogonalLoop=1;jettySize=auto;html=1;exitX=1;exitY=0.25;exitDx=0;exitDy=0;entryX=0;entryY=0.25;entryDx=0;entryDy=0;" edge="1" parent="1" source="WJ1Att6ZlezzinivNfb--12" target="WJ1Att6ZlezzinivNfb--1">
          <mxGeometry relative="1" as="geometry" />
        </mxCell>
        <mxCell id="WJ1Att6ZlezzinivNfb--12" value="Frontend (ThymeLeaf)" style="whiteSpace=wrap;html=1;aspect=fixed;rounded=0;" vertex="1" parent="1">
          <mxGeometry x="334" y="300" width="80" height="80" as="geometry" />
        </mxCell>
      </root>
    </mxGraphModel>
  </diagram>
</mxfile>
